<svg width="40" height="40" viewBox="0 0 40 40" fill="none" xmlns="http://www.w3.org/2000/svg">
<circle cx="20" cy="20" r="20" fill="#43C5DB"/>
<path d="M28.9949 28.1927H11.0562C9.11614 28.1927 7.53906 26.5863 7.53906 24.6103V13.5824C7.53906 11.6063 9.11755 10 11.0562 10H28.9949C30.935 10 32.512 11.6063 32.512 13.5824V24.6103C32.512 26.5863 30.9336 28.1927 28.9949 28.1927ZM11.0562 11.4329C9.89272 11.4329 8.94591 12.3973 8.94591 13.5824V24.6103C8.94591 25.7953 9.89272 26.7597 11.0562 26.7597H28.9949C30.1584 26.7597 31.1052 25.7953 31.1052 24.6103V13.5824C31.1052 12.3973 30.1584 11.4329 28.9949 11.4329H11.0562Z" fill="white"/>
<path d="M24.6611 32H15.3421C14.9538 32 14.6387 31.679 14.6387 31.2835C14.6387 30.888 14.9538 30.567 15.3421 30.567H24.6625C25.0508 30.567 25.3659 30.888 25.3659 31.2835C25.3645 31.679 25.0508 32 24.6611 32Z" fill="white"/>
<path d="M20.0023 32.0001C19.614 32.0001 19.2988 31.6791 19.2988 31.2836V27.4777C19.2988 27.0822 19.614 26.7612 20.0023 26.7612C20.3905 26.7612 20.7057 27.0822 20.7057 27.4777V31.2836C20.7057 31.6791 20.3905 32.0001 20.0023 32.0001Z" fill="white"/>
<path d="M20 23C19.448 23 19 22.6741 19 22.2727V16.7273C19 16.3259 19.448 16 20 16C20.552 16 21 16.3259 21 16.7273V22.2727C21 22.6756 20.552 23 20 23Z" fill="white"/>
<path d="M20 23C19.5581 23 19.1427 22.8108 18.8311 22.4692L16.2575 19.647C15.9142 19.2706 15.9142 18.6587 16.2575 18.2823C16.6007 17.9059 17.1588 17.9059 17.502 18.2823L20 21.0214L22.498 18.2823C22.8412 17.9059 23.3993 17.9059 23.7425 18.2823C24.0858 18.6587 24.0858 19.2706 23.7425 19.647L21.1689 22.4672C20.8573 22.8108 20.4419 23 20 23Z" fill="white"/>
</svg>
