<svg width="40" height="40" viewBox="0 0 40 40" fill="none" xmlns="http://www.w3.org/2000/svg">
<circle cx="20" cy="20" r="20" fill="#43C5DB"/>
<path d="M19.9992 30C19.5345 30 19.1575 29.6229 19.1575 29.1583C19.1575 28.6937 19.5345 28.3166 19.9992 28.3166C25.1368 28.3166 29.3166 24.1368 29.3166 18.9992C29.3166 13.8615 25.1368 9.68169 19.9992 9.68169C14.8615 9.68337 10.6834 13.8632 10.6834 18.9992C10.6834 19.4638 10.3063 19.8408 9.84169 19.8408C9.37708 19.8408 9 19.4638 9 18.9992C9 12.934 13.934 8 19.9992 8C26.0644 8 31 12.934 31 19.0008C30.9983 25.066 26.0644 30 19.9992 30Z" fill="white"/>
<path d="M20.0006 25C18.5257 25 17.3868 24.2399 17.0301 23.0153C16.9061 22.5879 17.1766 22.1459 17.6349 22.0286C18.0932 21.9113 18.567 22.1652 18.6928 22.5927C18.8427 23.1069 19.3079 23.3914 20.0006 23.3914C20.6829 23.3914 21.1154 23.115 21.3239 22.5445C21.4772 22.1251 21.9648 21.9001 22.4163 22.0431C22.866 22.1861 23.1072 22.6425 22.9538 23.0619C22.5058 24.2945 21.429 25 20.0006 25Z" fill="white"/>
<path d="M10.7911 24.9939C8.05835 24.9939 5.84375 22.7404 5.84375 19.9596C5.84375 17.1788 8.05835 14.9253 10.7911 14.9253V24.9939Z" fill="white"/>
<path d="M10.7914 25.8527C7.59776 25.8527 5 23.2093 5 19.9596C5 18.3846 5.6026 16.9057 6.69639 15.7927C7.79019 14.6797 9.24352 14.0665 10.7914 14.0665C11.2572 14.0665 11.6353 14.4513 11.6353 14.9253V24.9939C11.6353 25.4679 11.2572 25.8527 10.7914 25.8527ZM9.94739 15.8717C9.17262 16.0349 8.46199 16.4248 7.88978 17.0071C7.11501 17.7954 6.68795 18.8449 6.68795 19.9596C6.68795 21.9675 8.08896 23.649 9.94739 24.0475V15.8717Z" fill="white"/>
<path d="M29.207 24.9939C31.9398 24.9939 34.1544 22.7404 34.1544 19.9596C34.1544 17.1788 31.9398 14.9253 29.207 14.9253C29.207 14.9253 30.0898 17.6614 30.0898 20.1056C30.0915 22.5497 29.207 24.9939 29.207 24.9939Z" fill="white"/>
<path d="M29.2071 25.8527C28.932 25.8527 28.6737 25.7153 28.5151 25.4851C28.3581 25.255 28.3193 24.9613 28.4155 24.6985C28.4239 24.6761 29.2476 22.3608 29.2476 20.1056C29.2476 17.8246 28.4155 15.219 28.407 15.1933C28.3226 14.9322 28.3665 14.6454 28.5252 14.4221C28.6839 14.1988 28.9388 14.0665 29.2088 14.0665C30.755 14.0665 32.21 14.6797 33.3038 15.7927C34.3976 16.9057 35.0002 18.3863 35.0002 19.9596C35.0002 23.2093 32.4007 25.8527 29.2071 25.8527ZM30.3668 15.9525C30.6267 17.0225 30.9356 18.6044 30.9356 20.1073C30.9356 21.5467 30.6537 22.9671 30.4005 23.9582C32.0851 23.4377 33.3139 21.8421 33.3139 19.9613C33.3139 18.8466 32.8869 17.7972 32.1121 17.0088C31.6158 16.5038 31.0183 16.1465 30.3668 15.9525Z" fill="white"/>
<path d="M23.0296 29.2896C23.0296 30.3115 22.2143 31.1411 21.21 31.1411H19.2688C18.2645 31.1411 17.4492 30.3115 17.4492 29.2896C17.4492 28.2676 18.2645 27.438 19.2688 27.438H21.21C22.216 27.438 23.0296 28.2676 23.0296 29.2896Z" fill="white"/>
<path d="M21.2102 32H19.2691C17.8005 32 16.6055 30.7839 16.6055 29.2896C16.6055 27.7953 17.8005 26.5792 19.2691 26.5792H21.2102C22.6787 26.5792 23.8738 27.7953 23.8738 29.2896C23.8738 30.7839 22.6787 32 21.2102 32ZM19.2707 28.2968C18.7323 28.2968 18.2951 28.7417 18.2951 29.2896C18.2951 29.8375 18.7323 30.2824 19.2707 30.2824H21.2119C21.7504 30.2824 22.1875 29.8375 22.1875 29.2896C22.1875 28.7417 21.7504 28.2968 21.2119 28.2968H19.2707Z" fill="white"/>
</svg>
