<svg width="183" height="31" viewBox="0 0 183 31" fill="none" xmlns="http://www.w3.org/2000/svg">
<g clip-path="url(#clip0_107_180)">
<path d="M121.693 18.2883C121.698 15.2277 120.593 12.2682 118.583 9.95226C116.572 7.63632 113.79 6.11917 110.746 5.67896C107.703 5.23876 104.602 5.905 102.012 7.55553C99.4217 9.20607 97.5164 11.7303 96.645 14.6654C95.7736 17.6005 95.9946 20.7499 97.2675 23.536C98.5404 26.3221 100.78 28.5583 103.575 29.8346C106.371 31.1109 109.535 31.3418 112.487 30.4849C115.44 29.628 117.983 27.7408 119.651 25.1692V30.9932H121.693V18.2883ZM108.926 28.9604C106.805 28.9604 104.731 28.3345 102.968 27.1618C101.204 25.9891 99.8294 24.3224 99.0177 22.3723C98.206 20.4222 97.9936 18.2764 98.4074 16.2062C98.8212 14.136 99.8426 12.2344 101.343 10.7419C102.842 9.2494 104.753 8.23297 106.834 7.82119C108.914 7.4094 111.07 7.62075 113.03 8.42849C114.99 9.23624 116.665 10.6041 117.843 12.3591C119.022 14.1142 119.651 16.1775 119.651 18.2883C119.647 21.1177 118.517 23.8304 116.506 25.8311C114.495 27.8319 111.769 28.9572 108.926 28.9604Z" fill="#000F47"/>
<path d="M182.979 18.2883C182.983 15.2277 181.879 12.2682 179.868 9.95226C177.857 7.63632 175.075 6.11917 172.032 5.67896C168.988 5.23876 165.887 5.905 163.297 7.55553C160.707 9.20607 158.802 11.7303 157.93 14.6654C157.059 17.6005 157.28 20.7499 158.553 23.536C159.826 26.3221 162.065 28.5583 164.86 29.8346C167.656 31.1109 170.82 31.3418 173.772 30.4849C176.725 29.628 179.268 27.7408 180.936 25.1692V30.9932H182.979V18.2883ZM170.211 28.9604C168.09 28.9604 166.017 28.3345 164.253 27.1618C162.489 25.9891 161.115 24.3224 160.303 22.3723C159.491 20.4222 159.279 18.2764 159.693 16.2062C160.106 14.136 161.128 12.2344 162.628 10.7419C164.128 9.2494 166.039 8.23297 168.119 7.82119C170.199 7.4094 172.356 7.62075 174.315 8.42849C176.275 9.23624 177.95 10.6041 179.128 12.3591C180.307 14.1142 180.936 16.1775 180.936 18.2883C180.933 21.1177 179.802 23.8304 177.791 25.8311C175.781 27.8319 173.055 28.9572 170.211 28.9604Z" fill="#000F47"/>
<path d="M152.336 30.9932H150.293V18.2883C150.293 16.8868 150.015 15.499 149.477 14.2042C148.938 12.9094 148.148 11.733 147.152 10.742C146.156 9.75096 144.974 8.96485 143.672 8.42853C142.371 7.8922 140.977 7.61616 139.568 7.61616C138.16 7.61616 136.765 7.8922 135.464 8.42853C134.163 8.96485 132.981 9.75096 131.985 10.742C130.989 11.733 130.199 12.9094 129.66 14.2042C129.121 15.499 128.844 16.8868 128.844 18.2883V30.9932H126.801V18.2883C126.801 14.9187 128.146 11.6872 130.54 9.30456C132.935 6.92192 136.182 5.58337 139.568 5.58337C142.954 5.58337 146.202 6.92192 148.596 9.30456C150.991 11.6872 152.336 14.9187 152.336 18.2883V30.9932Z" fill="#000F47"/>
<path d="M89.0098 0V5.59016L91.0526 3.55738V0H89.0098Z" fill="#00BFDF"/>
<path d="M89.0098 7.623V9.65578V31H91.0526V9.65578V5.59021L89.0098 7.623Z" fill="#00BFDF"/>
<path d="M83.882 18.3697C83.7832 17.709 83.3168 17.2787 82.881 17.2787H60.4103C60.4305 16.2442 60.5972 15.2177 60.9057 14.2296C61.3097 12.8904 62.0113 11.659 62.9587 10.6264C64.8312 8.63262 67.5635 7.61622 71.0771 7.61622C78.9469 7.61622 81.6128 13.3351 82.195 14.9004L83.7492 13.3538C83.2053 12.1903 82.5024 11.1071 81.6604 10.1352C79.8543 8.05666 76.5535 5.57666 71.0771 5.57666C67.0323 5.57666 63.7094 6.83868 61.4674 9.22382C60.1005 10.7032 59.1483 12.5142 58.7063 14.4752C58.4703 15.4864 58.356 16.5219 58.3658 17.5599V17.9462C58.3661 18.0375 58.3735 18.1287 58.3879 18.2189C58.4918 18.8711 58.9565 19.2946 59.3872 19.2946H81.8579C81.8379 20.3291 81.6711 21.3557 81.3625 22.3438C80.959 23.6831 80.2573 24.9147 79.3095 25.9469C77.437 27.9407 74.7132 28.9503 71.1911 28.9503C63.3196 28.9503 60.6554 23.228 60.0732 21.6662L58.5173 23.2145C59.0626 24.3776 59.766 25.4606 60.6078 26.4331C62.4139 28.5133 65.7147 30.9916 71.1911 30.9916C75.2359 30.9916 78.5588 29.7313 80.8008 27.3444C82.1677 25.8647 83.1204 24.0539 83.5636 22.0931C83.7817 21.1615 83.8959 20.2088 83.9041 19.2522V18.6272C83.9038 18.5409 83.8964 18.4548 83.882 18.3697Z" fill="#000F47"/>
<path d="M4.93637 30.9932C3.95993 30.9931 3.00544 30.7049 2.19361 30.165C1.38178 29.6251 0.749089 28.8577 0.37554 27.96C0.00199085 27.0623 -0.095634 26.0744 0.0950156 25.1215C0.285665 24.1685 0.756024 23.2932 1.44661 22.6063L19.321 4.81939C19.7751 4.34493 20.32 3.96565 20.9236 3.70389C21.5272 3.44212 22.1773 3.30315 22.8357 3.29516C23.4941 3.28718 24.1475 3.41033 24.7573 3.65737C25.3671 3.90441 25.9211 4.27035 26.3867 4.73366C26.8523 5.19696 27.2201 5.74826 27.4683 6.35511C27.7166 6.96196 27.8403 7.6121 27.8323 8.26726C27.8243 8.92242 27.6846 9.56937 27.4216 10.17C27.1585 10.7707 26.7774 11.3129 26.3006 11.7647L8.42614 29.5516C7.96852 30.0088 7.42465 30.3714 6.82578 30.6188C6.2269 30.8662 5.5848 30.9935 4.93637 30.9932Z" fill="#00BFDF"/>
<path d="M40.6853 30.9933C40.0371 30.9941 39.3951 30.8675 38.7962 30.6207C38.1973 30.3739 37.6533 30.0118 37.1956 29.5551L28.2583 20.6616C27.3697 19.7332 26.8811 18.4958 26.8969 17.2138C26.9126 15.9317 27.4313 14.7066 28.3424 13.7999C29.2535 12.8933 30.4847 12.3771 31.773 12.3614C33.0614 12.3458 34.3049 12.832 35.2379 13.7163L44.1751 22.608C44.8651 23.295 45.3349 24.1702 45.5252 25.1229C45.7156 26.0755 45.6178 27.063 45.2443 27.9604C44.8708 28.8578 44.2384 29.6249 43.4269 30.1647C42.6155 30.7045 41.6614 30.9929 40.6853 30.9933Z" fill="#000F47"/>
<path d="M22.8117 30.9999C25.5382 30.9999 27.7485 28.8005 27.7485 26.0874C27.7485 23.3742 25.5382 21.1748 22.8117 21.1748C20.0853 21.1748 17.875 23.3742 17.875 26.0874C17.875 28.8005 20.0853 30.9999 22.8117 30.9999Z" fill="#000F47"/>
</g>
<defs>
<clipPath id="clip0_107_180">
<rect width="182.978" height="31" fill="white"/>
</clipPath>
</defs>
</svg>
