<svg width="172" height="172" viewBox="0 0 172 172" fill="none" xmlns="http://www.w3.org/2000/svg">
<path d="M-9.23313e-06 30.5058C0.000447201 24.4715 1.79021 18.573 5.14292 13.556C8.49563 8.53912 13.2607 4.62921 18.8355 2.32075C24.4102 0.0122966 30.5444 -0.591005 36.462 0.587171C42.3797 1.76535 47.815 4.67207 52.0807 8.93972L162.533 119.4C165.479 122.206 167.834 125.573 169.46 129.304C171.085 133.034 171.948 137.051 171.998 141.12C172.047 145.189 171.283 149.226 169.749 152.995C168.214 156.764 165.942 160.187 163.065 163.064C160.188 165.942 156.765 168.214 152.996 169.748C149.228 171.283 145.191 172.047 141.122 171.998C137.054 171.948 133.037 171.085 129.307 169.46C125.577 167.834 122.21 165.479 119.404 162.532L8.95187 52.0718C6.11312 49.2438 3.86096 45.8828 2.32473 42.1819C0.788504 38.4809 -0.00153594 34.5129 -9.23313e-06 30.5058V30.5058Z" fill="#EEEEEE"/>
</svg>
