<svg width="172" height="172" viewBox="0 0 172 172" fill="none" xmlns="http://www.w3.org/2000/svg">
<path d="M30.5058 172C24.4715 172 18.573 170.21 13.5561 166.857C8.53913 163.504 4.62921 158.739 2.32076 153.165C0.0123031 147.59 -0.590998 141.456 0.587177 135.538C1.76535 129.62 4.67207 124.185 8.93972 119.919L119.4 9.46732C122.206 6.52103 125.573 4.16583 129.304 2.54033C133.034 0.914829 137.051 0.0518746 141.12 0.00226767C145.189 -0.0473393 149.226 0.717402 152.995 2.25147C156.764 3.78554 160.187 6.05794 163.064 8.93493C165.942 11.8119 168.214 15.2354 169.748 19.0038C171.283 22.7722 172.047 26.8093 171.998 30.8777C171.948 34.9461 171.085 38.9634 169.46 42.6933C167.834 46.4232 165.479 49.7902 162.532 52.5962L52.0718 163.048C49.2438 165.887 45.8828 168.139 42.1819 169.675C38.4809 171.212 34.5129 172.002 30.5058 172Z" fill="#EEEEEE"/>
</svg>
